<?xml version="1.0" encoding="utf-8"?>
<!-- Generator: Moho 13.5.4 build 20220425 -->
<!DOCTYPE svg PUBLIC "-//W3C//DTD SVG 1.1//EN" "http://www.w3.org/Graphics/SVG/1.1/DTD/svg11.dtd">
<svg version="1.1" id="Frame_1" xmlns="http://www.w3.org/2000/svg" xmlns:xlink="http://www.w3.org/1999/xlink" width="32px" height="30px">
<path id="S1" fill="#969696" fill-rule="evenodd" stroke="none" d="M 30.218 1.798 C 30.131 1.700 27.978 2.024 27.036 2.226 C 26.007 2.448 24.664 2.875 23.674 3.235 C 22.604 3.625 21.198 4.209 20.191 4.738 C 19.352 5.178 18.048 5.920 17.509 6.406 C 16.556 7.263 15.243 8.366 14.368 9.302 C 13.528 10.199 12.496 11.480 11.794 12.489 C 11.046 13.562 10.196 15.089 9.567 16.236 C 9.136 17.023 8.490 18.711 8.214 18.906 C 7.902 19.126 5.914 18.276 4.919 18.042 C 3.823 17.783 1.409 16.783 1.244 17.275 C 1.147 17.566 1.945 19.337 2.294 20.203 C 2.607 20.980 3.091 21.988 3.437 22.751 C 3.965 23.912 4.672 25.459 5.215 26.614 C 5.595 27.424 6.295 29.261 6.503 29.305 C 6.749 29.357 7.788 28.706 8.328 28.428 C 9.646 27.750 11.333 26.716 12.646 26.028 C 13.502 25.580 14.691 25.074 15.532 24.600 C 16.618 23.988 19.149 22.976 19.031 22.359 C 18.923 21.803 16.728 21.503 15.739 21.142 C 14.986 20.868 13.391 20.580 13.227 20.239 C 12.989 19.745 14.362 17.574 15.027 16.532 C 15.870 15.208 17.651 13.150 18.351 12.491 C 18.959 11.919 20.256 10.741 21.185 10.143 C 22.050 9.586 23.304 8.996 24.269 8.639 C 25.243 8.278 26.599 7.961 27.619 7.762 C 28.386 7.613 30.035 7.543 30.202 7.419 C 30.688 7.057 30.524 5.388 30.561 4.509 C 30.592 3.745 30.555 2.173 30.218 1.798 Z"/>
</svg>
